<?xml version="1.0" encoding="utf-8"?>
<!-- Generator: Adobe Illustrator 17.1.0, SVG Export Plug-In . SVG Version: 6.00 Build 0)  -->
<!DOCTYPE svg PUBLIC "-//W3C//DTD SVG 1.1//EN" "http://www.w3.org/Graphics/SVG/1.1/DTD/svg11.dtd">
<svg version="1.1" id="Layer_1" xmlns="http://www.w3.org/2000/svg" xmlns:xlink="http://www.w3.org/1999/xlink" x="0px" y="0px"
	 viewBox="0 0 218.7 275.7" enable-background="new 0 0 218.7 275.7" xml:space="preserve">
<rect x="0.6" y="0" fill="#B79F82" width="218.1" height="218.1"/>
<g>
	<path fill="#474B50" d="M172.4,180.6c-4.2-0.1-0.2-0.1-0.2-0.1c-9.7,0-16.1-6.3-19.2-18.8c-0.8-3.5-1.4-8.1-1.8-13.8v-24.5
		c2-23.9,11.7-35.9,26.6-35.9c8.6,0,14.4,4,17.6,11.9c-1.3-0.5-2.6-0.7-3.8-0.7c-2.9,0-5.2,1.3-6.8,4c-1.6,2.7-2.4,5.6-2.4,8.9
		c-0.1,10.3,6.9,12.5,10,12.5c7-0.1,11.4-5.2,11.1-15.1c-0.1-7.4-2.1-13.7-7.3-18.9c-5.6-5.7-12.8-8.5-21.6-8.5
		c-8.6,0-16.6,2.6-23.3,7.7v-24c0-0.3-0.2-0.5-0.5-0.5c-0.3,0-0.5,0.2-0.5,0.5v0.3c0,0,0,0.1,0,0.1v24.4c-3.2,2.7-6.1,6.1-8.5,10.1
		c-5.9,9.9-8.9,21.2-8.9,33.7c0,5.9,0.4,11.2,1,16h-6.6v-16.4c0,0,0,0,0-0.1V92.9l0.5-1.1c0.1-0.3,0-0.6-0.3-0.7c-0.1,0-0.2,0-0.2,0
		v-5.6l1.4-15.5l-1,19.4c0,0.3,0.2,0.6,0.5,0.6c0,0,0,0,0,0c0.3,0,0.5-0.2,0.5-0.5l1.3-25.1c0-0.2-0.1-0.4-0.3-0.5l0.4-0.8h1.3
		c0.3,0,0.5-0.2,0.5-0.5c0-0.1,0-0.2-0.1-0.3h0.3c0.3,0,0.5-0.2,0.5-0.5c0-0.3-0.2-0.5-0.5-0.5h-2.9c0-0.2-0.2-0.4-0.4-0.4
		c-0.3-0.1-0.6,0.1-0.7,0.4l0,0.1h0l0.1-2.9c0-0.3-0.2-0.5-0.5-0.6c-0.3,0-0.5,0.2-0.6,0.5l0,0.5c0-0.1-0.1-0.2-0.2-0.3
		c-0.2-0.2-0.6-0.1-0.8,0.1l-0.2,0.3c-0.1-0.2-0.2-0.3-0.4-0.3c-0.3,0-0.6,0.2-0.6,0.5l-0.1,1.4l-0.5,0.7h-1c-0.3,0-0.5,0.2-0.5,0.5
		c0,0.1,0,0.2,0.1,0.3h-0.8c-0.3,0-0.5,0.2-0.5,0.5c0,0.3,0.2,0.5,0.5,0.5h0.8L98.3,98.6l20.9-44.2c0.1-0.3,0-0.6-0.3-0.7
		c-0.3-0.1-0.6,0-0.7,0.3l-15.1,31.9l8.1-26.6c0.1,0,0.2,0.1,0.3,0.1c0,0,0,0,0,0c0.3,0,0.5-0.2,0.5-0.5l0.1-2.5l3-9.9l0,0.3
		c0,0.3,0.2,0.5,0.5,0.6c0,0,0,0,0,0c0.2,0,0.4-0.1,0.5-0.3c0,0,0,0,0.1,0c0,0,0,0,0,0c0.2,0,0.4-0.2,0.5-0.4c0.1,0,0.1,0,0.2,0
		c0,0,0,0,0,0c0.3,0,0.5-0.2,0.5-0.5l0.1-3.2l0,3.6c0,0.3,0.2,0.5,0.5,0.5c0,0,0,0,0,0c0.3,0,0.5-0.2,0.5-0.5l0-3.7h2.2
		c0.1,0,0.1,0.1,0.2,0.1h2.3l0.2,4.3c0,0.3,0.3,0.5,0.5,0.5c0,0,0,0,0,0c0.3,0,0.5-0.3,0.5-0.6l0-0.2c0,0,0.1,0,0.1,0c0,0,0,0,0,0
		c0.3,0,0.5-0.3,0.5-0.6l-0.2-3.4h5.3l0.1,0.9l0.1,2.5c0,0.2,0.1,0.3,0.2,0.4c0.1,0.2,0.3,0.4,0.5,0.4c0,0,0,0,0.1,0
		c0.3,0,0.5-0.3,0.5-0.6l-0.3-2.8l0-0.8h5.4l0.4,4.2c0,0.3,0.3,0.5,0.5,0.5c0,0,0,0,0.1,0c0.3,0,0.5-0.3,0.5-0.6l0-0.5
		c0.1,0,0.1,0,0.2,0c0,0,0.1,0,0.1,0c0.3-0.1,0.5-0.3,0.4-0.6l-0.6-3h4.9l0.7,4.1c0,0.3,0.3,0.4,0.5,0.4c0,0,0.1,0,0.1,0
		c0.3-0.1,0.5-0.3,0.4-0.6l-0.7-4h0l1.1,4.2c0.1,0.2,0.3,0.4,0.5,0.4c0,0,0.1,0,0.1,0c0.3-0.1,0.5-0.4,0.4-0.7l-1-4h2.6l1.1,3.4
		c0.1,0.2,0.3,0.4,0.5,0.4c0.1,0,0.1,0,0.2,0c0.3-0.1,0.4-0.4,0.4-0.7l-1-3.1h0.5l0.9,3.5c0.1,0.2,0.3,0.4,0.5,0.4c0,0,0.1,0,0.1,0
		c0.3-0.1,0.5-0.4,0.4-0.7l-0.9-3.3h3.2c0.1,0,0.2,0,0.2-0.1h0.6c0.1,0,0.2,0,0.3-0.1h16c0.3,0,0.5-0.2,0.5-0.5
		c0-0.3-0.2-0.5-0.5-0.5h-16.4c-0.1-0.2-0.3-0.4-0.5-0.4h-3.9l-1-3.6c-0.1-0.3-0.4-0.5-0.7-0.4c-0.3,0.1-0.5,0.4-0.4,0.7l0.9,3.4
		h-0.6l-1-3.2c-0.1-0.3-0.4-0.4-0.7-0.4c-0.3,0.1-0.4,0.4-0.4,0.7l0.9,2.9h-2.5l-0.8-3.2c-0.1-0.3-0.4-0.5-0.7-0.4
		c-0.1,0-0.2,0.1-0.3,0.2c-0.1-0.1-0.3-0.1-0.4-0.1c-0.3,0.1-0.5,0.3-0.4,0.6l0.5,2.9h-4.9l-0.6-3.5c0-0.1-0.1-0.2-0.1-0.3l0,0
		c0-0.3-0.3-0.5-0.6-0.5c-0.3,0-0.5,0.3-0.5,0.6l0.4,3.7h-5.4l-0.2-3.7c0-0.3-0.3-0.5-0.6-0.5c0,0,0,0-0.1,0
		c-0.1-0.1-0.3-0.1-0.4-0.1c-0.3,0-0.5,0.3-0.5,0.6l0.4,3.7h-5.2l-0.2-3.6c0-0.3-0.3-0.5-0.6-0.5c-0.1,0-0.1,0-0.2,0l0-0.1
		c0-0.3-0.3-0.5-0.6-0.5c-0.3,0-0.5,0.3-0.5,0.6l0.2,4.1h-4.7l0-3.3c0-0.3-0.2-0.5-0.5-0.5c0,0,0,0,0,0c-0.3,0-0.5,0.2-0.5,0.5
		l0,0.3c0,0-0.1-0.1-0.1-0.1c0-0.2-0.2-0.3-0.4-0.4c-0.1,0-0.3,0-0.4,0c-0.1-0.2-0.3-0.3-0.4-0.3c0,0,0,0,0,0c-0.1,0-0.2,0-0.2,0
		c-0.1,0-0.1,0-0.2,0c-0.3,0-0.5,0.2-0.6,0.5l-0.1,1.8l-0.6,1.4h-3.4c-0.3,0-0.5,0.2-0.5,0.5c0,0,0,0,0,0c-0.1,0.1-0.3,0.3-0.3,0.4
		c0,0.3,0.2,0.5,0.5,0.5h2.9l-3.1,6.5c-0.1-0.2-0.2-0.4-0.5-0.4c-0.3,0-0.6,0.2-0.6,0.5l-0.2,2.5L90,93.5c-0.1,0.3,0,0.6,0.3,0.7
		c0.1,0,0.2,0.1,0.2,0.1c0.2,0,0.4-0.1,0.5-0.3l18.5-39.1l-0.2,2.8c0,0.3,0.2,0.6,0.5,0.6c0,0,0,0,0,0c0.3,0,0.5-0.2,0.5-0.5
		l0.4-5.6l0.5-1.1l-0.2,5l-5.4,17.6l0.2-5.2c0-0.3-0.2-0.6-0.5-0.6c-0.3,0-0.6,0.2-0.6,0.5l-0.4,9.4c0,0,0,0,0,0.1l-3.9,12.8
		c-0.1,0.2,0,0.3,0.1,0.5L99,94.6l0.7-6.7l0.1-0.7c0-0.1,0-0.2,0-0.2c0-0.3-0.2-0.5-0.5-0.5c-0.3,0-0.6,0.2-0.6,0.5l-0.1,0.8
		l-1.2,7.5c0,0.3,0.1,0.5,0.3,0.6l-0.1,0.6c0,0.2,0.1,0.4,0.2,0.5l-2,4.1l0.8-2.4c0.1-0.3-0.1-0.6-0.4-0.7c-0.3-0.1-0.6,0.1-0.7,0.4
		l-1,3.3c-0.1,0-0.1-0.1-0.2-0.1c-0.3,0-0.6,0.2-0.6,0.5l-0.4,2.9l-0.6,1.4c0,0-0.1,0-0.1,0c-0.3,0-0.6,0.2-0.6,0.5l-0.1,0.9
		l-0.6,0.8c-0.1,0.1-0.1,0.1-0.1,0.2l-0.4,0.6c-0.1,0.2-0.1,0.4,0,0.6l-1.1,3.4l-1.7-4.1l0.4,0.8c0.1,0.2,0.3,0.3,0.5,0.3
		c0.1,0,0.2,0,0.2-0.1c0.3-0.1,0.4-0.4,0.3-0.7l-1.6-3.5l0.3-1.3c0.1-0.3-0.1-0.6-0.4-0.6c-0.3-0.1-0.6,0.1-0.6,0.4l0,0l-0.5-1.1
		l-0.7-5.2c0-0.3-0.3-0.5-0.6-0.5c-0.3,0-0.5,0.3-0.5,0.6l0.2,1.9l-5-10.5l0.9-3l2,4.8c0.1,0.2,0.3,0.3,0.5,0.3c0.1,0,0.1,0,0.2,0
		c0.2-0.1,0.3-0.3,0.3-0.5l1.4,2.9c0.1,0.2,0.3,0.3,0.5,0.3c0.1,0,0.2,0,0.2-0.1c0.3-0.1,0.4-0.4,0.3-0.7L75.8,71.1L74.1,67l0.2-0.9
		l0.2-0.4c0.1-0.3,0-0.6-0.3-0.7c-0.3-0.1-0.6,0-0.7,0.3l0,0l-5.7-13.7l2.1-4.2c0.1-0.3,0-0.6-0.2-0.7c-0.3-0.1-0.6,0-0.7,0.2
		l-1.7,3.3l0.6-2.5c0.1-0.3-0.1-0.6-0.4-0.6c-0.3-0.1-0.6,0.1-0.6,0.4l-0.3,1.1l-1.7-4.1l0.6-1H69c0.3,0,0.5-0.2,0.5-0.5
		c0-0.3-0.2-0.5-0.5-0.5h-0.8c0-0.1,0.1-0.2,0.1-0.3c0-0.3-0.2-0.5-0.5-0.5h-1.2c0,0-0.1,0-0.1-0.1l0.1-0.3h1.4
		c0.3,0,0.5-0.2,0.5-0.5c0-0.3-0.2-0.5-0.5-0.5h-0.8l0.4-0.7c0.1-0.3,0.1-0.6-0.2-0.7c-0.3-0.1-0.6-0.1-0.7,0.2l-0.7,1.3H64l0.5-2.5
		c0.1-0.3-0.1-0.6-0.4-0.6c-0.3-0.1-0.6,0.1-0.6,0.4l-0.6,2.7L62,38.1c0,0,0,0,0,0c0-0.2-0.1-0.5-0.3-0.6c-0.2-0.1-0.4,0-0.6,0.1
		c-0.1,0-0.3,0.1-0.3,0.2l-0.4,0.6l-0.2-0.5c-0.1-0.3-0.4-0.4-0.7-0.3c-0.3,0.1-0.4,0.4-0.3,0.7l0.5,1.1l-0.5,0.8h-4.3l0.5-1
		l0.3-0.4c0.1-0.1,0.1-0.2,0.1-0.3l0.2-0.4c0.1-0.3,0-0.6-0.2-0.7c-0.3-0.1-0.6,0-0.7,0.2l-0.5,1l-1,1.5h-4.4l0.6-0.7
		c0.2-0.2,0.1-0.6-0.1-0.8c-0.2-0.2-0.6-0.1-0.8,0.1l-0.9,1.2l0.6-2.5c0.1-0.3-0.1-0.6-0.4-0.6c-0.3-0.1-0.6,0.1-0.6,0.4l-0.7,2.9
		h-2.6l0.8-1c0.2-0.2,0.2-0.6-0.1-0.8c-0.2-0.2-0.6-0.2-0.8,0.1l-1.4,1.7h-0.9l0.8-1.7c0.1-0.3,0-0.6-0.3-0.7
		c-0.3-0.1-0.6,0-0.7,0.3l-1,2.2h-2.1l0.3-0.3c0.2-0.2,0.2-0.6,0-0.8c-0.2-0.2-0.6-0.2-0.8,0l-0.9,1h-1.4l0.9-1.5
		c0.2-0.3,0.1-0.6-0.2-0.7c-0.3-0.2-0.6-0.1-0.7,0.2l-1.3,2.1h-4.9l1.3-1.6c0.2-0.2,0.1-0.6-0.1-0.8c-0.2-0.2-0.6-0.1-0.8,0.1
		l-1.8,2.3h-0.3v-0.4l0.6-0.6c0.2-0.2,0.2-0.6,0-0.8c-0.2-0.1-0.4-0.2-0.6-0.1v-0.8c0-0.3-0.2-0.5-0.5-0.5c-0.2,0-0.4,0.1-0.5,0.3
		c0,0,0,0-0.1,0c-0.3,0-0.5,0.2-0.5,0.5V40L26,40.3h-4.2c-0.3,0-0.5,0.2-0.5,0.5c0,0.3,0.2,0.5,0.5,0.5H25l-0.2,0.2h-2.1
		c-0.1,0-0.3,0.1-0.4,0.2h-6.5c-0.3,0-0.5,0.2-0.5,0.5c0,0.3,0.2,0.5,0.5,0.5h7.5c0,0.1-0.1,0.2-0.1,0.3c0,0.1,0,0.1,0,0.2l-0.6,0.7
		c-0.2,0.2-0.2,0.6,0,0.8c0.1,0.1,0.2,0.1,0.4,0.1c0.1,0,0.3-0.1,0.4-0.2l1-1.1h1.2l-1.4,1.7c-0.2,0.2-0.1,0.6,0.1,0.8
		c0.1,0.1,0.2,0.1,0.3,0.1c0.2,0,0.3-0.1,0.4-0.2l1.2-1.5v82.9c0,0.3,0.2,0.5,0.5,0.5c0.3,0,0.5-0.2,0.5-0.5v-0.6c0,0,0,0,0,0
		c0.3,0,0.5-0.2,0.5-0.5V43.6h4.5l-1.1,1.8c-0.2,0.3-0.1,0.6,0.2,0.7c0.1,0.1,0.2,0.1,0.3,0.1c0.2,0,0.4-0.1,0.5-0.3l1.4-2.3h0.6
		l-1.7,1.9c-0.2,0.2-0.2,0.6,0,0.8c0.1,0.1,0.2,0.1,0.4,0.1c0.1,0,0.3-0.1,0.4-0.2l2.3-2.6h3.5l-1,2.1c-0.1,0.2,0,0.5,0.2,0.7
		c0,0,0.1,0.1,0.1,0.1c0.1,0.1,0.2,0.1,0.3,0.1c0.2,0,0.3-0.1,0.4-0.2l2.3-2.8h3.8l-1,1.3c-0.2,0.2-0.1,0.6,0.1,0.8
		c0.1,0.1,0.2,0.1,0.3,0.1c0.2,0,0.3-0.1,0.4-0.2l0.4-0.6l-0.3,1.3c-0.1,0.3,0.1,0.6,0.4,0.6c0,0,0.1,0,0.1,0c0.2,0,0.5-0.2,0.5-0.4
		l0.7-2.9h4.2l-1.1,1.6c-0.2,0.2-0.1,0.6,0.1,0.7c0.1,0.1,0.2,0.1,0.3,0.1c0.1,0,0.1,0,0.2-0.1c0,0.2,0.1,0.4,0.3,0.5
		c0.1,0,0.2,0.1,0.2,0.1c0.2,0,0.4-0.1,0.5-0.3l1.4-2.7h4l-1.2,2c-0.2,0.3-0.1,0.6,0.2,0.7c0.1,0.1,0.2,0.1,0.3,0.1
		c0.2,0,0.4-0.1,0.5-0.3l1.6-2.6h0.2l-1,2.5c-0.1,0.3,0,0.6,0.3,0.7c0.1,0,0.1,0,0.2,0c0.2,0,0.4-0.1,0.5-0.3l1.1-2.9h1.7l0.5,1
		l-0.3,1.7c-0.1,0.3,0.1,0.6,0.4,0.6c0,0,0,0,0,0l0,0.1c-0.1,0.3-0.1,0.6,0.2,0.7c0.1,0,0.2,0.1,0.3,0.1c0.2,0,0.4-0.1,0.5-0.3
		l0.2-0.4l2.4,5.1l-0.5,2.1l-0.8,1.6c0,0.1,0,0.1-0.1,0.2l-0.7-1.6c-0.1-0.3-0.4-0.4-0.7-0.3c-0.3,0.1-0.4,0.4-0.3,0.7l8.1,17.3
		l-0.6,1.6c-0.1,0.3,0,0.6,0.3,0.7c0.1,0,0.1,0,0.2,0c0.2,0,0.4-0.1,0.5-0.3l0.3-0.7l0.2,0.4l-0.2,1c-0.1,0.3,0.1,0.6,0.4,0.6
		c0,0,0.1,0,0.1,0c0.1,0,0.3-0.1,0.4-0.2l6.5,13.8l-0.6,2.6L59.6,56.5c-0.1-0.3-0.5-0.4-0.7-0.2c-0.3,0.1-0.4,0.5-0.2,0.7l19.1,36.4
		l0,0.1c0,0.1,0,0.3,0.1,0.4c0,0.2,0.2,0.3,0.4,0.4c0,0,0.1,0,0.1,0l3.9,7.4c-0.1,0-0.1,0-0.2,0c-0.3,0.1-0.4,0.4-0.3,0.7l3.4,8.4
		l-0.2,1.9c0,0.3,0.2,0.6,0.5,0.6c0,0,0,0,0,0c0.2,0,0.4-0.1,0.5-0.3c0,0,0.1,0,0.1,0l1.2,3l0.3,2l-0.5,2.8l0,0h-2.8
		c-0.3,0-0.5,0.2-0.5,0.5c0,0.3,0.2,0.5,0.5,0.5h0c0.1,0.1,0.2,0.1,0.3,0.2c0.1,0.2,0.3,0.3,0.4,0.3h1.7l-0.1,0.3l-0.2,0.5
		c0,0.1,0,0.2,0,0.3l-0.3,0.9c-0.1,0.2,0,0.3,0,0.4l-0.2,1.1c-0.1,0.3,0.1,0.6,0.4,0.6c0,0,0.1,0,0.1,0c0.3,0,0.5-0.2,0.5-0.4
		l0.5-2.4l0.5-1.4h0.2l0.1,0.9l-0.8,1.7c-0.1,0.3,0,0.6,0.3,0.7c0.1,0,0.1,0,0.2,0c0,0,0,0,0,0l-0.1,0.5c0,0.3,0.2,0.6,0.5,0.6
		c0,0,0.1,0,0.1,0c0.1,0,0.2,0,0.3-0.1l0.3,2.5c0,0.3,0.3,0.5,0.5,0.5c0,0,0,0,0.1,0c0.3,0,0.5-0.3,0.5-0.6l-0.3-2.6
		c0,0,0.1,0,0.1,0c0.3,0,0.5-0.3,0.4-0.6l-0.3-1.7c0,0,0,0,0,0l0.2,0.9c0,0.1,0.1,0.2,0.2,0.3l-0.3,1.4c-0.1,0.3,0.1,0.6,0.4,0.6
		c0,0,0.1,0,0.1,0c0.3,0,0.5-0.2,0.5-0.4l0.9-4.6h2.2c0.3,0,0.5-0.2,0.5-0.5c0-0.1,0.1-0.2,0.1-0.3c0-0.3-0.2-0.5-0.5-0.5h-0.4
		c-0.1-0.1-0.2-0.2-0.4-0.2h-1.1l0.7-3.7c0-0.3-0.1-0.5-0.3-0.6l0.2-1.2c0,0,0.1,0,0.1,0c0,0,0.1,0,0.1,0c0.3,0,0.5-0.2,0.5-0.4
		l1.3-7.3c0.1-0.3-0.1-0.6-0.4-0.6c-0.1,0-0.2,0-0.3,0.1l1.3-2.7l28.8-41.4h0.4l-0.4,8.3l-0.1,0.2l-1.8,3.3c-0.1,0.3,0,0.6,0.2,0.7
		c0.1,0,0.2,0.1,0.3,0.1c0.2,0,0.3-0.1,0.4-0.2l-1.3,5.6c-0.1,0.3,0.1,0.6,0.4,0.7c0,0,0.1,0,0.1,0c0.2,0,0.5-0.2,0.5-0.4l0.1-0.6
		c0,0.2,0.2,0.3,0.3,0.4c0.1,0,0.1,0,0.2,0c0,0,0.1,0,0.1,0l-0.1,2.3c0,0.3,0.2,0.6,0.5,0.6c0,0,0,0,0,0c0.3,0,0.5-0.2,0.5-0.5
		l0.3-4.8l1.5-4.1l-0.2,5.6c0,0.1,0,0.3,0.1,0.4c0,0,0,0,0,0c-0.3,0-0.5,0.2-0.5,0.5v6.6l-0.2,2.1c0,0.2,0.1,0.3,0.2,0.4v2.8
		l-26.7,56.5h-0.3l14.8-56.5c0.1-0.3-0.1-0.6-0.4-0.7c-0.3-0.1-0.6,0.1-0.7,0.4l-14.8,56.8H73.4c-0.3,0-0.5,0.2-0.5,0.5
		c0,0.2,0.2,0.4,0.4,0.5c0.1,0.2,0.3,0.4,0.5,0.4h23.8l-1,4c-0.1,0.3,0.1,0.6,0.4,0.7c0,0,0,0,0.1,0c0,0,0,0,0,0
		c0.1,0,0.2,0.1,0.2,0.1c0.2,0,0.4-0.1,0.5-0.3l2.2-4.8h3.5c0.3,0,0.5-0.2,0.5-0.5c0-0.3-0.2-0.5-0.5-0.5h-3l25.5-54v2.1
		c0,0,0,0-0.1,0c-0.3,0-0.5,0.2-0.5,0.5v47.6c-0.3,0-0.5,0.3-0.5,0.6l0.1,3.5h-2.5c-0.3,0-0.5,0.2-0.5,0.5c0,0.3,0.2,0.5,0.5,0.5
		h2.6l0,0.1H122c-0.3,0-0.5,0.2-0.5,0.5c0,0.3,0.2,0.5,0.5,0.5h2.9l0.1,2.5c0,0.3,0.3,0.5,0.5,0.5c0,0,0,0,0,0
		c0.2,0,0.4-0.1,0.5-0.3c0,0,0,0,0,0l0,0.2c0,0.3,0.2,0.5,0.5,0.5c0,0,0,0,0,0c0.3,0,0.5-0.2,0.5-0.5l0-2.9h6.9
		c4.6,27.8,20.5,35.4,39.2,35.4c31.9,0,29.6-24.8,30.1-28.3l-6.4-1.7C196.4,179.9,176.6,180.7,172.4,180.6z M112.1,49.3l2.9-6.2
		l-2.7,8.9l0.1-2.2C112.4,49.6,112.3,49.4,112.1,49.3z M91.5,115.9l-0.3,0.7l0,0l0.3-0.8C91.4,115.8,91.4,115.8,91.5,115.9z
		 M90.5,117.9C90.5,117.9,90.5,117.9,90.5,117.9l0,0.2L90.5,117.9z M90.4,120.9l0.9-2l-0.3,2H90.4z M89.1,115.2l-0.1,0.3
		c0,0.1,0,0.1,0,0.2l-0.1,0.3l-0.5-1.8l-0.5-2.9l1.4,3.4L89.1,115.2z M85.2,102.9c-0.1,0-0.1,0-0.2,0c-0.1,0-0.1,0.1-0.2,0.1l-0.3-1
		c-0.1-0.3-0.4-0.5-0.7-0.4c-0.2,0.1-0.4,0.2-0.4,0.5L79,93.4l0.7-2.2L85.2,102.9z M63.2,44.4l0.1-0.5l0.2,0.6l-0.2,0.3L63.2,44.4z
		 M62.3,41.6h-0.5l-0.1-0.2h0.5L62.3,41.6z M61.2,40.3l-0.1-0.1l0.3-0.7l0.3,0.8H61.2z M65.3,41.4l-0.1,0.2h-1.4l0-0.2H65.3z
		 M58.6,41.4l-0.1,0.2h-4.2l0.1-0.2H58.6z M52.7,41.4l-0.1,0.2h-4.5l0.1-0.2H52.7z M46.5,41.4l0,0.2h-3.3l0.1-0.2H46.5z M41.9,41.4
		l-0.1,0.2h-0.5l0.1-0.2H41.9z M40.1,41.4l-0.1,0.2h-2.6l0.1-0.2H40.1z M36.1,41.4L36,41.6h-1.1l0.1-0.2H36.1z M33.7,41.4l-0.1,0.2
		h-5.1l0.1-0.2H33.7z M64,45.7l1.9,4.6l-2-4.3L64,45.7z M64.5,56.5C64.5,56.5,64.5,56.6,64.5,56.5c0.1,0.1,0.2,0.1,0.3,0.1
		c0.2,0,0.4-0.1,0.5-0.3l0.1-0.1c0,0,0,0,0,0c0.2,0,0.5-0.2,0.5-0.4l0.3-1.2l0.3-0.6l6.2,13.2l-1.5,3.7L64.5,56.5z M71.9,72.2l0-0.1
		L71.9,72.2L71.9,72.2z M72.6,73.8l1-4.7l1.1,2.4L80,84.1c0,0-0.1,0.1-0.1,0.2l-0.8,3.3L72.6,73.8z M83.8,105l1.1,2l0.4,1.2l0,0.2
		L83.8,105z M90.8,123.2l-0.2-0.8H91L90.8,123.2z M126.8,65.5l-0.3,1.2l0.4-1.5L126.8,65.5z M128.7,67.5
		C128.7,67.5,128.7,67.5,128.7,67.5c-0.3-0.1-0.6,0-0.7,0.2c-0.1,0-0.1,0-0.1,0.1l0-0.6l0.9-1.7L128.7,67.5z M128.4,63.9l0.2-0.8
		h0.2L128.4,63.9z M127,59.2c0,0,0-0.1,0.1-0.1l-0.1,2.1h-1.1l0-0.3L127,59.2z M125.8,63.1h1.1l0,0.7c-0.1-0.1-0.1-0.1-0.2-0.1
		c-0.3-0.1-0.6,0.1-0.7,0.4l-0.4,1.6L125.8,63.1z M123.3,80l0.6-2.7l-0.1,1.1L123.3,80z M125.4,74.5l1.3-4.5l0,1.2L125.4,74.5z
		 M127.1,151.1l0-0.1h6.7c0,0,0,0.1,0,0.1H127.1z"/>
	<path fill="#474B50" d="M55.3,149.9h-0.5c0-0.1,0.1-0.2,0.1-0.2c0-0.3-0.2-0.5-0.5-0.5H51l0.7-1.7c0.1-0.3,0-0.6-0.3-0.7
		c-0.3-0.1-0.6,0-0.7,0.3l-0.3,0.8l0.3-1.5c0.1-0.3-0.1-0.6-0.4-0.6c-0.1,0-0.2,0-0.3,0.1v-11.8c0-0.1,0.1-0.2,0.1-0.3V95.1
		c0.1-0.1,0.2-0.3,0.2-0.5l-0.2-3v-5.8c0-0.3-0.2-0.5-0.5-0.5l-0.1-1.2c0.1,0.1,0.2,0.1,0.3,0.1c0,0,0,0,0,0c0.1,0,0.2,0,0.2-0.1
		l0.2,3.9c0,0.3,0.3,0.5,0.5,0.5c0,0,0,0,0,0c0,0,0.1,0,0.1,0v50.9c0,0.3,0.2,0.5,0.5,0.5c0.3,0,0.5-0.2,0.5-0.5V86
		c0-0.3-0.2-0.5-0.5-0.5c-0.1,0-0.2,0-0.3,0.1l-0.3-6.2l0.4,1.1c0.1,0.1,0.2,0.2,0.3,0.3l0.9,1.9l0.3,1.7c0,0.3,0.3,0.4,0.5,0.4
		c0,0,0.1,0,0.1,0c0,0,0,0,0.1,0l25.5,52.5c0.1,0.2,0.3,0.3,0.5,0.3c0.1,0,0.2,0,0.2-0.1c0.3-0.1,0.4-0.5,0.3-0.7L53.4,82.3l-0.6-3
		l35.6,55c0.1,0.2,0.3,0.2,0.5,0.2c0.1,0,0.2,0,0.3-0.1c0.3-0.2,0.3-0.5,0.2-0.7L52.4,76.6l-0.2-1.2c0.1,0,0.2,0.1,0.2,0.1
		c0,0,0.1,0,0.1,0c0.3-0.1,0.5-0.4,0.4-0.7l-2.8-9.9L50,63.1h3.1c0.3,0,0.5-0.2,0.5-0.5c0-0.3-0.2-0.5-0.5-0.5H50l0-0.2h3.3
		c0.3,0,0.5-0.2,0.5-0.5c0-0.3-0.2-0.5-0.5-0.5h-3.3l-0.1-2.3c0-0.3-0.3-0.5-0.6-0.5c-0.3,0-0.5,0.3-0.5,0.6l0,0.3l0-0.4
		c0-0.2-0.1-0.3-0.2-0.4l0,0c-0.1-0.3-0.4-0.5-0.6-0.4c-0.3,0.1-0.5,0.4-0.4,0.6l0.1,0.4c-0.1,0.1-0.2,0.3-0.1,0.5l0.4,1.3l0,0.3
		h-4.1c-0.3,0-0.5,0.2-0.5,0.5c0,0.3,0.2,0.5,0.5,0.5h4.2l0,0.2h-4.1c-0.3,0-0.5,0.2-0.5,0.5c0,0.3,0.2,0.5,0.5,0.5h4.2l0.1,1.8
		c-0.1-0.1-0.2-0.2-0.4-0.2c-0.3,0-0.5,0.3-0.5,0.6l0.1,3.1c-0.2,0.1-0.3,0.4-0.2,0.6l0.2,0.6c0,0.1,0,0.1,0,0.2l0.2,3l1,21.4
		c0,0.2,0.2,0.4,0.4,0.5v11.6c0,0.1-0.1,0.2-0.1,0.3v42.6h-0.3v-47.4c0-0.3-0.2-0.5-0.5-0.5c-0.3,0-0.5,0.2-0.5,0.5v47.4H23
		c-0.3,0-0.5,0.2-0.5,0.5c0,0.1,0.1,0.3,0.1,0.4c-0.1,0.1-0.2,0.2-0.2,0.4c0,0.3,0.2,0.5,0.5,0.5h24.5v3.4c0,0.3,0.2,0.5,0.5,0.5
		c0,0,0.1,0,0.1,0l0,0.2c-0.1,0.3,0.1,0.6,0.4,0.6c0,0,0.1,0,0.1,0c0.2,0,0.4-0.1,0.5-0.3c0.1,0.1,0.2,0.1,0.3,0.1
		c0.3,0,0.5-0.2,0.5-0.5v-3l0.4-1h5c0.3,0,0.5-0.2,0.5-0.5C55.8,150.2,55.6,149.9,55.3,149.9z M51.6,78.4l-0.8-2.3l0.6,0.9
		L51.6,78.4z M50.7,74c0-0.1-0.1-0.1-0.2-0.2l-0.1-1.6l0.4,1.9L50.7,74z M48.7,151l-0.2,1.4V151H48.7z"/>
	<path fill="#474B50" d="M103.3,77.9c0.3,0,0.5-0.2,0.5-0.5l1-8.1c0-0.3-0.2-0.6-0.5-0.6c-0.3,0-0.6,0.2-0.6,0.5l-1,8.1
		C102.7,77.6,103,77.9,103.3,77.9C103.3,77.9,103.3,77.9,103.3,77.9z"/>
</g>
<path fill="#FFFFFF" d="M217.1,231.7L217.1,231.7h-5.7v-4h6.6v-1h-7.7v11.6h7.7v-1h-6.6v-4.5h5.7V231.7z M202.2,227.7
	c1,0,1.8,0.4,2.5,1.1c0.7,0.7,1,1.6,1,2.7v2.1c0,1.1-0.3,2-1,2.7c-0.7,0.7-1.5,1.1-2.5,1.1h-2.7v-9.6H202.2z M202.2,238.2
	c1.3,0,2.4-0.4,3.3-1.3c0.9-0.9,1.4-2,1.4-3.4v-2.1c0-1.4-0.5-2.5-1.4-3.4c-0.9-0.9-2-1.3-3.3-1.3h-3.9v11.6H202.2z M188.9,231.3
	L188.9,231.3H184v-2.7h5.8v-1.9h-8.1v11.6h8.1v-1.9H184v-3.1h4.9V231.3z M176.2,226.7L176.2,226.7v7.5c0,0.7-0.2,1.3-0.7,1.7
	c-0.5,0.4-1.1,0.6-1.9,0.6c-0.8,0-1.5-0.2-1.9-0.6c-0.5-0.4-0.7-1-0.7-1.7v-7.5h-2.4v7.5c0,1.3,0.5,2.4,1.4,3.1
	c0.9,0.7,2.1,1.1,3.6,1.1c1.5,0,2.7-0.4,3.6-1.1c0.9-0.7,1.4-1.8,1.4-3.1v-7.5H176.2z M163.4,233.7c0,0.9-0.2,1.5-0.7,2.1
	c-0.5,0.5-1.1,0.8-1.9,0.8c-0.8,0-1.5-0.3-1.9-0.8c-0.5-0.5-0.7-1.2-0.7-2.1v-2.4c0-0.8,0.2-1.5,0.7-2c0.5-0.5,1.1-0.8,1.9-0.8
	c0.8,0,1.4,0.3,1.9,0.8c0.5,0.5,0.7,1.2,0.7,2V233.7z M165.7,231.2c0-1.4-0.5-2.5-1.4-3.4c-0.9-0.9-2.1-1.3-3.6-1.3
	c-1.5,0-2.7,0.4-3.6,1.3c-0.9,0.9-1.4,2-1.4,3.4v2.4c0,1.4,0.5,2.6,1.4,3.4c0.9,0.9,2.1,1.3,3.6,1.3c0.4,0,0.8,0,1.2-0.1
	c0.4-0.1,0.8-0.2,1.1-0.3l1.6,1.6l1.6-1.3l-1.5-1.5c0.3-0.4,0.6-0.9,0.8-1.4c0.2-0.5,0.3-1.1,0.3-1.7V231.2z M148.2,222.9
	L148.2,222.9h-2.7l0,0.1l2.5,2.6h2L148.2,222.9z M152.3,231.3L152.3,231.3h-4.9v-2.7h5.8v-1.9H145v11.6h8.1v-1.9h-5.8v-3.1h4.9
	V231.3z M141.7,226.7L141.7,226.7h-2.4v5h-5.1v-5h-2.4v11.6h2.4v-4.7h5.1v4.7h2.4V226.7z M129.4,226.7L129.4,226.7h-9.2v1.9h3.4v9.6
	h2.4v-9.6h3.4V226.7z M115.6,226.7L115.6,226.7v7.5c0,0.7-0.2,1.3-0.7,1.7c-0.5,0.4-1.1,0.6-1.9,0.6c-0.8,0-1.5-0.2-1.9-0.6
	c-0.5-0.4-0.7-1-0.7-1.7v-7.5H108v7.5c0,1.3,0.5,2.4,1.4,3.1c0.9,0.7,2.1,1.1,3.6,1.1c1.5,0,2.7-0.4,3.6-1.1
	c0.9-0.7,1.4-1.8,1.4-3.1v-7.5H115.6z M100.5,229.5L100.5,229.5L100.5,229.5l1.7,4.5h-3.4L100.5,229.5z M103.8,238.2L103.8,238.2
	h2.5l-4.5-11.6h-2.4l-4.5,11.6h2.5l0.8-2.3h4.8L103.8,238.2z M92.7,226.7L92.7,226.7h-2.4v11.6h2.4V226.7z M80.6,228.6L80.6,228.6
	h2.2c0.7,0,1.2,0.2,1.5,0.5c0.3,0.3,0.5,0.7,0.5,1.2c0,0.5-0.2,0.9-0.5,1.2c-0.3,0.3-0.8,0.4-1.5,0.4h-2.2V228.6z M83,233.8
	c0.6,0,1.1,0.1,1.4,0.4c0.3,0.3,0.5,0.7,0.5,1.3v1c0,0.3,0,0.7,0,1c0,0.3,0.1,0.6,0.1,0.7h2.4v-0.2c-0.1-0.1-0.2-0.4-0.2-0.7
	c0-0.3-0.1-0.6-0.1-0.9v-1c0-0.7-0.2-1.3-0.5-1.8c-0.3-0.5-0.8-0.8-1.5-1c0.6-0.3,1.1-0.6,1.4-1.1c0.3-0.4,0.5-1,0.5-1.6
	c0-1.1-0.4-1.9-1.2-2.5c-0.8-0.6-1.8-0.9-3.2-0.9h-4.5v11.6h2.4v-4.4H83z M70,225.6L70,225.6h1.9l2.7-2.6l0-0.1h-2.7L70,225.6z
	 M74.5,231.3L74.5,231.3h-4.9v-2.7h5.8v-1.9h-8.1v11.6h8.1v-1.9h-5.8v-3.1h4.9V231.3z M64.7,226.7L64.7,226.7h-9.2v1.9h3.4v9.6h2.4
	v-9.6h3.4V226.7z M49.1,229.5L49.1,229.5L49.1,229.5l1.7,4.5h-3.4L49.1,229.5z M52.4,238.2L52.4,238.2h2.5l-4.5-11.6h-2.4l-4.5,11.6
	h2.5l0.8-2.3h4.8L52.4,238.2z M32.1,226.7L32.1,226.7h-3v11.6h2.4v-7.6l0.1,0l2.9,7.6H36l2.9-7.5l0.1,0v7.5h2.4v-11.6h-3l-3.1,8.5
	h-0.1L32.1,226.7z M16.1,228.1L16.1,228.1L16.1,228.1l2.4,6.1h-4.8L16.1,228.1z M20.1,238.2L20.1,238.2h1.2l-4.6-11.6h-1.2
	l-4.6,11.6h1.2l1.2-3h5.6L20.1,238.2z M3.5,226.7L3.5,226.7H2.4v11.6h6.8v-1H3.5V226.7z"/>
<path fill="#FFFFFF" d="M213.9,256.5c1,1.3,1.6,2.9,1.6,4.9v0.5h-12.9l-0.1-0.1c0.2-2.1,0.9-3.8,2.2-5.2c1.2-1.4,2.8-2,4.7-2
	C211.3,254.6,212.8,255.2,213.9,256.5 M214.2,274.9c1.3-0.5,2.3-1.2,3.1-2.1l-1.1-1.7c-0.8,0.8-1.7,1.4-2.9,1.8
	c-1.1,0.5-2.4,0.7-3.8,0.7c-2.3,0-4.1-0.8-5.4-2.5c-1.3-1.7-1.9-3.8-1.9-6.4V264h15.7v-1.9c0-3-0.7-5.3-2.2-7
	c-1.5-1.7-3.6-2.6-6.3-2.6c-2.7,0-5,1-6.8,3.1c-1.8,2.1-2.8,4.8-2.8,8v1.1c0,3.2,0.9,5.8,2.7,7.9c1.8,2,4.2,3.1,7.1,3.1
	C211.4,275.7,212.9,275.4,214.2,274.9 M171.4,252.9L171.4,252.9v22.4h2.5v-15.8c0.5-1.5,1.3-2.6,2.4-3.5c1.1-0.9,2.5-1.3,4.3-1.3
	s3.1,0.5,4.1,1.6c1,1.1,1.4,2.9,1.4,5.4v13.6h2.5v-13.6c0-3.1-0.6-5.5-1.9-6.9c-1.3-1.5-3.1-2.2-5.6-2.2c-1.7,0-3.1,0.4-4.3,1.1
	c-1.2,0.8-2.2,1.8-2.9,3.2l-0.2-3.9H171.4z M158.5,243L158.5,243H156v3.5h2.5V243z M158.5,252.9L158.5,252.9H156v22.4h2.5V252.9z
	 M145.8,252.7L145.8,252.7c-0.2-0.1-0.4-0.1-0.7-0.2c-0.3,0-0.6-0.1-0.9-0.1c-1.5,0-2.8,0.4-3.9,1.2c-1.1,0.8-2,1.8-2.6,3.2v-0.2
	l-0.3-3.7h-2.2v22.4h2.5v-15.5c0.4-1.5,1.1-2.7,2.2-3.6c1-0.9,2.3-1.3,3.9-1.3l1.8,0.1L145.8,252.7z M120.2,256.5
	c1,1.3,1.6,2.9,1.6,4.9v0.5h-12.9l-0.1-0.1c0.2-2.1,0.9-3.8,2.2-5.2c1.2-1.4,2.8-2,4.7-2C117.6,254.6,119.1,255.2,120.2,256.5
	 M120.5,274.9c1.3-0.5,2.3-1.2,3.1-2.1l-1.1-1.7c-0.8,0.8-1.7,1.4-2.9,1.8c-1.2,0.5-2.4,0.7-3.8,0.7c-2.3,0-4.1-0.8-5.4-2.5
	c-1.3-1.7-1.9-3.8-1.9-6.4V264h15.7v-1.9c0-3-0.7-5.3-2.2-7c-1.5-1.7-3.6-2.6-6.3-2.6c-2.7,0-5,1-6.8,3.1c-1.8,2.1-2.8,4.8-2.8,8
	v1.1c0,3.2,0.9,5.8,2.7,7.9c1.8,2,4.2,3.1,7.1,3.1C117.7,275.7,119.2,275.4,120.5,274.9 M80.2,243L80.2,243h-2.5v32.3h2.5v-16
	c0.5-1.4,1.4-2.6,2.5-3.4c1.1-0.8,2.6-1.3,4.3-1.3c1.7,0,3,0.5,4,1.6c1,1.1,1.4,2.8,1.4,5.2v13.8h2.5v-13.8c0-3.1-0.6-5.3-1.9-6.8
	c-1.3-1.5-3.1-2.2-5.5-2.2c-1.7,0-3.1,0.4-4.4,1.1c-1.2,0.7-2.2,1.8-3,3.1V243z M59.4,247.1L59.4,247.1v5.7h-3.9v2h3.9v14.6
	c0,2.2,0.4,3.7,1.3,4.7c0.9,1,2.1,1.5,3.7,1.5c0.5,0,1-0.1,1.5-0.2c0.5-0.1,0.9-0.2,1.2-0.4l-0.4-1.8c-0.4,0.1-0.7,0.1-1,0.2
	c-0.3,0-0.6,0.1-0.9,0.1c-0.9,0-1.6-0.3-2.1-0.9c-0.5-0.6-0.8-1.7-0.8-3.1v-14.6h5v-2h-5v-5.7H59.4z M31.7,272.3
	c-0.8-0.8-1.3-1.8-1.3-3.1c0-1.4,0.7-2.5,2-3.5c1.3-1,3-1.4,5-1.4h5.6v4.3c-0.5,1.4-1.4,2.6-2.8,3.5c-1.4,0.9-3.1,1.4-5,1.4
	C33.7,273.5,32.5,273.1,31.7,272.3 M46,275.2c-0.2-0.7-0.4-1.5-0.4-2.2c-0.1-0.7-0.1-1.5-0.1-2.3v-11c0-2.3-0.7-4.1-2.2-5.4
	c-1.5-1.3-3.5-1.9-5.9-1.9c-2.5,0-4.5,0.6-6,1.9c-1.5,1.3-2.3,2.8-2.2,4.4l0,0.1h2.3c0-1.3,0.5-2.3,1.6-3.1c1-0.8,2.4-1.2,4.1-1.2
	c1.9,0,3.3,0.5,4.3,1.4c1,0.9,1.5,2.2,1.5,3.8v2.8h-5.5c-2.8,0-5.1,0.6-6.9,1.9c-1.8,1.2-2.6,2.9-2.6,4.9s0.6,3.6,1.8,4.7
	c1.2,1.2,2.9,1.7,5.1,1.7c1.8,0,3.4-0.4,4.8-1.2c1.4-0.8,2.5-1.8,3.3-3c0,0.6,0,1.2,0.1,1.7c0.1,0.6,0.2,1.2,0.3,2H46z M4.2,271
	c-1.1-1.7-1.7-3.9-1.7-6.5v-0.9c0-2.6,0.6-4.7,1.7-6.5c1.2-1.7,2.9-2.6,5.3-2.6c1.7,0,3.1,0.5,4.3,1.6c1.2,1.1,1.8,2.5,1.8,4.3h2.2
	l0-0.1c0.1-2.4-0.7-4.3-2.3-5.7c-1.6-1.4-3.6-2.2-6-2.2c-3,0-5.3,1-7,3.1c-1.7,2.1-2.5,4.8-2.5,8v0.9c0,3.3,0.8,6,2.5,8
	c1.7,2.1,4,3.1,7,3.1c2.2,0,4.2-0.7,5.9-2.1c1.7-1.4,2.5-3.1,2.5-5.2l0-0.1h-2.2c0,1.7-0.6,3-1.8,3.9c-1.2,0.9-2.6,1.4-4.2,1.4
	C7.1,273.6,5.4,272.7,4.2,271"/>
</svg>
